HIERARCHY
ROOT RootJoint
{
    OFFSET   0.000000   0.000000   0.000000
    CHANNELS 6 Xposition Yposition Zposition Xrotation Yrotation Zrotation
    JOINT pelvis_lowerback
    {
        OFFSET   0.000000   0.093605   0.000000
        CHANNELS 3 Xrotation Yrotation Zrotation
        JOINT lowerback_torso
        {
            OFFSET   0.000000   0.100000   0.000000
            CHANNELS 3 Xrotation Yrotation Zrotation
            JOINT torso_head
            {
                OFFSET   0.000000   0.282350   0.000000
                CHANNELS 3 Xrotation Yrotation Zrotation
                End Site
                {
                    OFFSET   0.000000   0.192650   0.000000
                }
            }
            JOINT rTorso_Clavicle
            {
                OFFSET  -0.001000   0.157500   0.000000
                CHANNELS 3 Xrotation Yrotation Zrotation
                JOINT rShoulder
                {
                    OFFSET  -0.117647   0.000000   0.000000
                    CHANNELS 3 Xrotation Yrotation Zrotation
                    JOINT rElbow
                    {
                        OFFSET  -0.245000   0.000000   0.000000
                        CHANNELS 3 Xrotation Yrotation Zrotation
                        JOINT rWrist
                        {
                            OFFSET  -0.240000   0.000000   0.000000
                            CHANNELS 3 Xrotation Yrotation Zrotation
                            End Site
                            {
                                OFFSET  -0.116353  -0.002500   0.000000
                            }
                        }
                    }
                }
            }
            JOINT lTorso_Clavicle
            {
                OFFSET   0.001000   0.157500   0.000000
                CHANNELS 3 Xrotation Yrotation Zrotation
                JOINT lShoulder
                {
                    OFFSET   0.117647   0.000000   0.000000
                    CHANNELS 3 Xrotation Yrotation Zrotation
                    JOINT lElbow
                    {
                        OFFSET   0.245000   0.000000   0.000000
                        CHANNELS 3 Xrotation Yrotation Zrotation
                        JOINT lWrist
                        {
                            OFFSET   0.240000   0.000000   0.000000
                            CHANNELS 3 Xrotation Yrotation Zrotation
                            End Site
                            {
                                OFFSET   0.116353  -0.002500   0.000000
                            }
                        }
                    }
                }
            }
        }
    }
    JOINT rHip
    {
        OFFSET  -0.100000  -0.051395   0.000000
        CHANNELS 3 Xrotation Yrotation Zrotation
        JOINT rKnee
        {
            OFFSET   0.000000  -0.410000   0.000000
            CHANNELS 3 Xrotation Yrotation Zrotation
            JOINT rAnkle
            {
                OFFSET   0.000000  -0.390000   0.000000
                CHANNELS 3 Xrotation Yrotation Zrotation
                JOINT rToeJoint
                {
                    OFFSET   0.000000  -0.050000   0.130000
                    CHANNELS 3 Xrotation Yrotation Zrotation
                    End Site
                    {
                        OFFSET  -0.010000   0.002000   0.060000
                    }
                }
            }
        }
    }
    JOINT lHip
    {
        OFFSET   0.100000  -0.051395   0.000000
        CHANNELS 3 Xrotation Yrotation Zrotation
        JOINT lKnee
        {
            OFFSET   0.000000  -0.410000   0.000000
            CHANNELS 3 Xrotation Yrotation Zrotation
            JOINT lAnkle
            {
                OFFSET   0.000000  -0.390000   0.000000
                CHANNELS 3 Xrotation Yrotation Zrotation
                JOINT lToeJoint
                {
                    OFFSET   0.000000  -0.050000   0.130000
                    CHANNELS 3 Xrotation Yrotation Zrotation
                    End Site
                    {
                        OFFSET   0.010000   0.002000   0.060000
                    }
                }
            }
        }
    }
}
MOTION
Frames: 15
Frame Time:   0.008333
 -2.268255   0.899896   4.060840  15.850318  67.282706 -17.539565  -0.394791  13.015754  -3.902410   1.701447   3.649133  -7.720261  -2.833681  -8.254783   1.643511  -7.065980  22.466012 -14.026735 -30.840721  26.436252   6.250620   0.002600  26.670470   0.000619   2.427453   2.060700  -5.494405  -1.805279  -6.804232  -1.495874   6.959201 -16.948486 -36.816641   0.016800 -83.165195   0.018279  -0.020426  -5.021890   2.672898   2.956211 -21.513004  -5.532900  38.255445   0.000237   0.000319  26.920381 -11.596999  13.494908 -13.535895   0.001056   0.002367 -26.328969 -21.504821  -0.982353  25.023148   0.000081  -0.000499  -7.263415 -17.293362   3.925131   1.133237  -0.000028  -0.000008
 -2.269126   0.900289   4.060894  15.880096  67.162186 -17.691627  -0.427746  12.980431  -3.868602   1.711792   3.670773  -7.572767  -3.011970  -8.193568   1.653026  -7.014861  22.367893 -13.636414 -30.884376  26.375957   6.337848   0.002850  26.904993   0.000728   2.387120   2.018036  -5.627292  -1.772014  -6.863316  -1.596871   6.800775 -16.990653 -36.705013   0.015849 -83.431314   0.017261  -0.042918  -5.086492   2.609952   2.931944 -21.402306  -5.404384  38.186496   0.000197   0.000256  26.869887 -11.384418  13.453090 -13.255289   0.000722   0.002468 -26.251769 -21.428128  -0.731189  24.847433   0.000123  -0.000480  -7.164000 -17.341745   3.909270   1.125134  -0.000020  -0.000007
 -2.270092   0.900690   4.060988  15.910846  67.008762 -17.845795  -0.454405  12.949649  -3.838533   1.715954   3.697849  -7.430724  -3.186797  -8.136636   1.661634  -6.959742  22.286130 -13.263843 -30.925407  26.325091   6.429412   0.003041  27.128364   0.000746   2.347616   2.001735  -5.764843  -1.751777  -6.922038  -1.684985   6.645086 -17.024321 -36.591009   0.015064 -83.670188   0.016419  -0.066143  -5.100463   2.597075   2.908243 -21.301668  -5.273029  38.092921   0.000187   0.000232  26.809680 -11.168347  13.418198 -13.074580   0.000435   0.002313 -26.177455 -21.344057  -0.462989  24.667183   0.000172  -0.000439  -7.067094 -17.370832   3.898344   1.123015  -0.000015  -0.000006
 -2.271188   0.901019   4.061054  15.954446  66.835905 -17.990711  -0.468285  12.920158  -3.821246   1.720672   3.724261  -7.300950  -3.351230  -8.083784   1.668167  -6.905036  22.217414 -12.920031 -30.963490  26.281804   6.516719   0.003152  27.337778   0.000696   2.310332   1.994056  -5.891248  -1.740813  -6.981663  -1.758343   6.493845 -17.056692 -36.479026   0.014724 -83.893173   0.016037  -0.088718  -5.104168   2.609799   2.874407 -21.203318  -5.185042  37.944467   0.000186   0.000265  26.796129 -10.993150  13.378060 -12.015223  -0.000324   0.003233 -26.134421 -21.253134  -0.214257  24.500472   0.000214  -0.000376  -6.972336 -17.382314   3.889612   1.124956  -0.000013  -0.000004
 -2.272349   0.901359   4.061176  15.980049  66.660895 -18.127432  -0.473148  12.889357  -3.798856   1.733094   3.747435  -7.173454  -3.503770  -8.034715   1.675531  -6.850156  22.155651 -12.593692 -30.998204  26.242267   6.602701   0.003206  27.534306   0.000609   2.275480   1.993575  -6.007595  -1.733105  -7.039694  -1.826501   6.350874 -17.087488 -36.372619   0.014647 -84.100479   0.015891  -0.109970  -5.104020   2.629034   2.848544 -21.120351  -5.066496  37.856686   0.000193   0.000261  26.727327 -10.781966  13.354072 -12.138599  -0.000131   0.002387 -26.080730 -21.169243   0.049021  24.331669   0.000259  -0.000319  -6.881241 -17.388060   3.885323   1.131516  -0.000014  -0.000003
 -2.273551   0.901679   4.061314  16.001488  66.484192 -18.253701  -0.471927  12.858824  -3.778758   1.750596   3.767963  -7.053105  -3.645232  -7.989079   1.682155  -6.796147  22.099584 -12.287650 -31.029671  26.205230   6.685588   0.003198  27.717612   0.000507   2.242239   1.993960  -6.110953  -1.726578  -7.095293  -1.889282   6.216852 -17.117447 -36.273328   0.014722 -84.294410   0.015884  -0.130340  -5.104701   2.647199   2.825784 -21.045393  -4.953490  37.764682   0.000205   0.000266  26.662026 -10.600087  13.328965 -12.228356  -0.000011   0.001792 -26.030895 -21.088327   0.305996  24.165127   0.000299  -0.000262  -6.792488 -17.386177   3.885367   1.141346  -0.000017  -0.000003
 -2.274791   0.901969   4.061463  16.022356  66.308960 -18.371272  -0.464563  12.828208  -3.761347   1.771751   3.785641  -6.940240  -3.776651  -7.946613   1.688235  -6.744272  22.048123 -12.001143 -31.058479  26.170375   6.764207   0.003137  27.888497   0.000404   2.210382   1.993571  -6.205062  -1.720836  -7.148564  -1.947742   6.091447 -17.146458 -36.180838   0.014853 -84.475634   0.015924  -0.149854  -5.106261   2.662890   2.803336 -20.975833  -4.849896  37.673433   0.000214   0.000272  26.600853 -10.431976  13.305500 -12.305689   0.000071   0.001345 -25.988867 -21.010376   0.553033  24.004515   0.000332  -0.000210  -6.706725 -17.379127   3.887865   1.153567  -0.000022  -0.000002
 -2.276007   0.902220   4.061762  16.231855  66.066541 -18.704229  -0.595787  12.801688  -3.718740   1.783173   3.825535  -6.819605  -3.913210  -7.883622   1.752413  -6.659136  21.967460 -11.694762 -31.113839  26.218304   6.876624   0.003246  28.102264   0.000310   2.187063   1.949875  -6.372367  -1.685573  -7.193863  -2.062097   5.868959 -17.141023 -36.003509   0.011741 -84.455302   0.012576  -0.148396  -5.212563   2.664949   2.830689 -20.871286  -4.639675  37.399805   0.000349   0.000366  26.451856 -10.176508  13.288736 -12.815804   0.000882  -0.000056 -26.050698 -20.893793   0.872826  23.908064   0.000332  -0.000193  -6.643357 -17.400194   3.780975   1.144278  -0.000019  -0.000001
 -2.277226   0.902427   4.062076  16.445970  65.784962 -19.026968  -0.725305  12.787593  -3.691512   1.775569   3.874748  -6.710823  -4.049073  -7.824512   1.816724  -6.571564  21.905937 -11.407119 -31.165568  26.275282   6.991025   0.003300  28.309194   0.000200   2.168379   1.944873  -6.533643  -1.666741  -7.239718  -2.163577   5.651339 -17.126717 -35.824685   0.009191 -84.418501   0.009814  -0.149132  -5.231975   2.737225   2.871136 -20.775650  -4.436917  37.076119   0.000551   0.000567  26.287379  -9.931424  13.276640 -13.512355   0.002084  -0.001357 -26.135523 -20.763726   1.187139  23.833125   0.000320  -0.000158  -6.594774 -17.396499   3.672523   1.135781  -0.000017  -0.000001
 -2.278456   0.902600   4.062376  16.648335  65.486608 -19.323732  -0.842654  12.778222  -3.674337   1.764150   3.925934  -6.614123  -4.178567  -7.769727   1.876414  -6.486593  21.858456 -11.141624 -31.214334  26.335721   7.100560   0.003294  28.505277   0.000082   2.152710   1.959812  -6.684827  -1.656976  -7.286196  -2.252932   5.442314 -17.113086 -35.652415   0.007129 -84.381868   0.007584  -0.150589  -5.226107   2.840041   2.910080 -20.688809  -4.249558  36.740887   0.000761   0.000799  26.120275  -9.701691  13.267286 -14.301952   0.003374  -0.002320 -26.230561 -20.629200   1.487927  23.767990   0.000304  -0.000120  -6.552310 -17.375714   3.569452   1.129125  -0.000015  -0.000001
 -2.279697   0.902744   4.062655  16.835535  65.185241 -19.594222  -0.945785  12.769304  -3.663719   1.754796   3.974828  -6.527149  -4.299763  -7.718885   1.931892  -6.405885  21.820386 -10.896617 -31.260353  26.396785   7.203655   0.003238  28.690052  -0.000033   2.139133   1.985286  -6.828274  -1.652335  -7.333305  -2.333946   5.243605 -17.102133 -35.489443   0.005456 -84.347695   0.005781  -0.152033  -5.216795   2.951982   2.944176 -20.608884  -4.076168  36.409435   0.000941   0.001008  25.956064  -9.487238  13.259844 -15.129536   0.004544  -0.002938 -26.330001 -20.495645   1.773929  23.708412   0.000287  -0.000084  -6.512564 -17.344942   3.473219   1.124372  -0.000012  -0.000001
 -2.280940   0.902865   4.062913  17.007103  64.888434 -19.840234  -1.034987  12.759134  -3.657830   1.749631   4.019610  -6.448143  -4.412437  -7.671659   1.983666  -6.329807  21.788609 -10.669733 -31.303640  26.456493   7.300244   0.003144  28.863524  -0.000138   2.127053   2.016078  -6.965193  -1.650404  -7.380519  -2.409046   5.056057 -17.094035 -35.336776   0.004100 -84.316162   0.004327  -0.153353  -5.209123   3.063249   2.972906 -20.534635  -3.914901  36.088703   0.001080   0.001170  25.797267  -9.287028  13.253900 -15.964762   0.005498  -0.003275 -26.430615 -20.366030   2.045191  23.652635   0.000270  -0.000054  -6.474280 -17.308444   3.384014   1.121383  -0.000010  -0.000001
 -2.282181   0.902965   4.063154  17.163600  64.600335 -20.063815  -1.111356  12.747234  -3.655635   1.749213   4.059763  -6.375967  -4.516949  -7.627762   2.032053  -6.258263  21.761093 -10.458853 -31.344193  26.513590   7.390682   0.003021  29.025935  -0.000229   2.116045   2.048876  -7.095952  -1.649712  -7.427169  -2.479603   4.879930 -17.088417 -35.194544   0.003006 -84.287048   0.003161  -0.154590  -5.203564   3.169500   2.996616 -20.465299  -3.764294  35.781915   0.001174   0.001282  25.645013  -9.099995  13.249188 -16.791116   0.006211  -0.003401 -26.530486 -20.241889   2.302120  23.599896   0.000254  -0.000029  -6.437081 -17.268779   3.301541   1.119961  -0.000008  -0.000000
 -2.283448   0.903043   4.063447  17.463184  64.232422 -20.437725  -1.310727  12.763100  -3.631945   1.754517   4.138934  -6.292051  -4.630521  -7.572528   2.100134  -6.210349  21.717813 -10.200319 -31.538888  26.677154   7.527313   0.002626  29.127764  -0.000080   2.116039   2.033912  -7.225654  -1.634368  -7.482433  -2.672872   4.627037 -17.074056 -34.902760   0.002347 -84.086842   0.002191  -0.152906  -5.273910   3.291868   3.012655 -20.349806  -3.560864  35.390460   0.001360   0.001464  25.245001  -8.939922  13.266283 -17.179455   0.006081  -0.003130 -26.720271 -20.051383   2.621846  23.571451   0.000226  -0.000025  -6.388676 -17.264784   3.086132   1.089643  -0.000040   0.000001
 -2.284735   0.903087   4.063720  17.757520  63.839027 -20.791479  -1.501252  12.789292  -3.617390   1.740970   4.225711  -6.218670  -4.741637  -7.520166   2.168584  -6.170963  21.693694  -9.967389 -31.727754  26.844991   7.652588   0.002280  29.228071   0.000031   2.113087   2.028231  -7.391332  -1.634982  -7.541903  -2.855005   4.379371 -17.056338 -34.620775   0.001976 -83.883804   0.001561  -0.153827  -5.265730   3.476695   3.034052 -20.243862  -3.369844  34.963032   0.001601   0.001753  24.846856  -8.783523  13.286535 -17.711847   0.006489  -0.002922 -26.925755 -19.853688   2.931808  23.552488   0.000196  -0.000018  -6.346530 -17.241638   2.878524   1.061323  -0.000061   0.000001
